<?xml version="1.0" encoding="utf-8"?>
<!-- Generator: Adobe Illustrator 24.3.0, SVG Export Plug-In . SVG Version: 6.00 Build 0)  -->
<svg version="1.1" id="Layer_1" xmlns="http://www.w3.org/2000/svg" xmlns:xlink="http://www.w3.org/1999/xlink" x="0px" y="0px"
	 viewBox="0 0 1000 1000" style="enable-background:new 0 0 1000 1000;" xml:space="preserve">
<style type="text/css">
	.st0{fill:#FFFFFF;}
	.st1{fill:#35DB8F;}
</style>
<g>
	<g>
		<path class="st0" d="M500,553c-34.38,0-62.36-27.97-62.36-62.36v-61.34c0-34.38,27.97-62.36,62.36-62.36s62.36,27.97,62.36,62.36
			v61.34C562.36,525.03,534.39,553,500,553z M500,379.39c-27.52,0-49.92,22.39-49.92,49.92v61.34c0,27.52,22.39,49.92,49.92,49.92
			c27.52,0,49.92-22.39,49.92-49.92v-61.34C549.92,401.78,527.52,379.39,500,379.39z"/>
	</g>
	<g>
		<rect x="493.78" y="546.78" class="st0" width="12.44" height="80.05"/>
	</g>
	<g>
		<rect x="465.09" y="620.61" class="st0" width="69.83" height="12.44"/>
	</g>
	<g>
		<path class="st1" d="M500,584.11c-51.54,0-93.47-41.93-93.47-93.46h12.44c0,44.68,36.35,81.02,81.02,81.02
			c44.68,0,81.02-36.35,81.02-81.02h12.44C593.46,542.18,551.54,584.11,500,584.11z"/>
	</g>
</g>
</svg>
