<?xml version="1.0" encoding="utf-8"?>
<!-- Generator: Adobe Illustrator 24.3.0, SVG Export Plug-In . SVG Version: 6.00 Build 0)  -->
<svg version="1.1" id="Layer_1" xmlns="http://www.w3.org/2000/svg" xmlns:xlink="http://www.w3.org/1999/xlink" x="0px" y="0px"
	 viewBox="0 0 1000 1000" style="enable-background:new 0 0 1000 1000;" xml:space="preserve">
<style type="text/css">
	.st0{fill:#FFFFFF;}
	.st1{fill:#35DB8F;}
</style>
<g>
	<g>
		<path class="st0" d="M500,659.31c-9.88,0-19.74-0.9-29.33-2.67l-7-1.3l2.22-6.76c5.43-16.53-2.3-34.69-18-42.25
			c-15.69-7.56-34.71-2.3-44.25,12.23l-3.9,5.95l-5.38-4.66c-14.96-12.97-27.27-28.39-36.58-45.83l-3.35-6.28l6.67-2.48
			c16.3-6.06,25.67-23.43,21.79-40.42c-3.88-16.98-19.84-28.56-37.16-26.97l-7.08,0.65l0.29-7.1c0.8-19.83,5.18-39.06,13.02-57.17
			l2.82-6.52l6.09,3.66c14.91,8.96,34.35,5.46,45.21-8.16c10.86-13.61,9.96-33.33-2.1-45.87l-4.93-5.12l5.73-4.2
			c15.98-11.72,33.76-20.29,52.84-25.47l6.87-1.86l0.93,7.05c2.28,17.25,17.14,30.26,34.56,30.26s32.29-13.01,34.56-30.26l0.93-7.05
			l6.87,1.86c19.08,5.18,36.85,13.75,52.84,25.47l5.73,4.2l-4.93,5.12c-12.06,12.54-12.96,32.26-2.1,45.87
			c10.86,13.61,30.3,17.12,45.21,8.16l6.09-3.66l2.82,6.52c7.83,18.11,12.21,37.35,13.02,57.17l0.29,7.1l-7.08-0.65
			c-17.31-1.6-33.28,9.99-37.16,26.97c-3.88,16.99,5.49,34.36,21.79,40.42l6.67,2.48l-3.35,6.28
			c-9.31,17.44-21.61,32.86-36.58,45.83l-5.38,4.66l-3.9-5.95c-9.54-14.54-28.56-19.8-44.24-12.24
			c-15.7,7.55-23.44,25.72-18.01,42.25l2.22,6.76l-7,1.3C519.74,658.41,509.88,659.31,500,659.31z M479.44,645.45
			c13.55,1.88,27.58,1.88,41.13,0c-3.37-20.37,7.05-41.14,26.15-50.33c19.08-9.2,41.82-4.4,55.64,10.92
			c10.03-9.5,18.63-20.27,25.65-32.13c-18.02-10.06-27.76-31.16-23.04-51.83c4.72-20.66,22.64-35.44,43.23-36.7
			c-1.16-13.79-4.22-27.22-9.12-40.09c-19.11,7.81-41.69,2.27-54.91-14.29c-13.22-16.57-13.59-39.81-1.72-56.7
			c-11.49-7.68-23.91-13.67-37.04-17.86c-5.8,19.82-24.21,34.03-45.41,34.03c-21.21,0-39.61-14.2-45.41-34.03
			c-13.14,4.2-25.55,10.18-37.04,17.86c11.87,16.9,11.5,40.13-1.72,56.7c-13.22,16.56-35.79,22.1-54.91,14.29
			c-4.9,12.87-7.96,26.3-9.12,40.09c20.59,1.26,38.52,16.05,43.23,36.7c4.72,20.67-5.02,41.76-23.04,51.83
			c7.02,11.87,15.62,22.64,25.65,32.13c13.83-15.32,36.56-20.12,55.65-10.91C472.39,604.31,482.81,625.08,479.44,645.45z"/>
	</g>
	<g>
		<g>
			<path class="st1" d="M448.22,498.11h-12.44c0-6.96,1.11-13.8,3.3-20.33c8.73-26.24,33.22-43.88,60.92-43.88
				c27.7,0,52.19,17.64,60.92,43.89l-11.81,3.93c-7.04-21.16-26.78-35.38-49.12-35.38c-22.34,0-42.07,14.22-49.12,35.38
				C449.12,486.98,448.22,492.49,448.22,498.11z"/>
		</g>
		<g>
			<path class="st1" d="M500,562.34c-25.23,0-48.23-14.87-58.58-37.89l11.35-5.1c8.35,18.56,26.89,30.55,47.24,30.55
				s38.89-11.99,47.24-30.55c3.01-6.69,4.54-13.83,4.54-21.23h12.44c0,9.17-1.9,18.03-5.63,26.34
				C548.22,547.46,525.23,562.34,500,562.34z"/>
		</g>
		<g>
			<polygon class="st1" points="439.01,506.37 415.74,473.79 425.86,466.56 442.8,490.26 468.51,476.57 474.36,487.55 			"/>
		</g>
		<g>
			<polygon class="st1" points="573.33,530.08 556.4,506.37 530.68,520.07 524.83,509.09 560.18,490.26 583.46,522.85 			"/>
		</g>
	</g>
</g>
</svg>
