<?xml version="1.0" encoding="utf-8"?>
<!-- Generator: Adobe Illustrator 24.3.0, SVG Export Plug-In . SVG Version: 6.00 Build 0)  -->
<svg version="1.1" id="Layer_1" xmlns="http://www.w3.org/2000/svg" xmlns:xlink="http://www.w3.org/1999/xlink" x="0px" y="0px"
	 viewBox="0 0 1000 1000" style="enable-background:new 0 0 1000 1000;" xml:space="preserve">
<style type="text/css">
	.st0{fill:#FFFFFF;}
	.st1{fill:#35DB8F;}
</style>
<g>
	<g>
		<g>
			<rect x="356.1" y="521.45" class="st1" width="287.79" height="12.44"/>
		</g>
		<g>
			<g>
				<path class="st0" d="M500,485.99c-43.05,0-78.07-35.02-78.07-78.07h12.44c0,36.19,29.44,65.63,65.63,65.63
					c36.19,0,65.63-29.44,65.63-65.63h12.44C578.07,450.97,543.05,485.99,500,485.99z"/>
			</g>
			<g>
				<path class="st0" d="M643.69,485.99c-43.05,0-78.07-35.02-78.07-78.07h12.44c0,36.19,29.44,65.63,65.63,65.63V485.99z"/>
			</g>
			<g>
				<path class="st0" d="M356.31,485.99v-12.44c36.19,0,65.63-29.44,65.63-65.63h12.44C434.37,450.97,399.35,485.99,356.31,485.99z"
					/>
			</g>
		</g>
	</g>
	<g>
		<rect x="421.93" y="423.44" class="st0" width="12.44" height="168.63"/>
	</g>
	<g>
		<rect x="565.63" y="423.44" class="st0" width="12.44" height="168.63"/>
	</g>
</g>
</svg>
