<?xml version="1.0" encoding="utf-8"?>
<!-- Generator: Adobe Illustrator 24.3.0, SVG Export Plug-In . SVG Version: 6.00 Build 0)  -->
<svg version="1.1" id="Layer_1" xmlns="http://www.w3.org/2000/svg" xmlns:xlink="http://www.w3.org/1999/xlink" x="0px" y="0px"
	 viewBox="0 0 1000 1000" style="enable-background:new 0 0 1000 1000;" xml:space="preserve">
<style type="text/css">
	.st0{fill:#FFFFFF;}
	.st1{fill:#35DB8F;}
</style>
<g>
	<g>
		<path class="st0" d="M626.76,604.49H373.24V395.51h253.51V604.49z M385.69,592.05h228.63V407.95H385.69V592.05z"/>
	</g>
	<g>
		<rect x="379.46" y="446.34" class="st0" width="241.07" height="12.44"/>
	</g>
	<g>
		<g>
			
				<rect x="434.96" y="395.58" transform="matrix(0.8052 -0.593 0.593 0.8052 -167.3589 344.8447)" class="st0" width="12.44" height="63.13"/>
		</g>
		<g>
			
				<rect x="493.78" y="395.58" transform="matrix(0.8052 -0.593 0.593 0.8052 -155.9004 379.7311)" class="st0" width="12.44" height="63.13"/>
		</g>
		<g>
			
				<rect x="552.6" y="395.58" transform="matrix(0.8052 -0.593 0.593 0.8052 -144.4413 414.6125)" class="st0" width="12.44" height="63.13"/>
		</g>
	</g>
	<g>
		<path class="st1" d="M471.71,565.08v-79.07l68.47,39.53L471.71,565.08z M484.15,507.57v35.97l31.15-17.98L484.15,507.57z"/>
	</g>
</g>
</svg>
