<?xml version="1.0" encoding="utf-8"?>
<!-- Generator: Adobe Illustrator 24.3.0, SVG Export Plug-In . SVG Version: 6.00 Build 0)  -->
<svg version="1.1" id="Layer_1" xmlns="http://www.w3.org/2000/svg" xmlns:xlink="http://www.w3.org/1999/xlink" x="0px" y="0px"
	 viewBox="0 0 1000 1000" style="enable-background:new 0 0 1000 1000;" xml:space="preserve">
<style type="text/css">
	.st0{fill:#FFFFFF;}
	.st1{fill:#35DB8F;}
</style>
<g>
	<g>
		<path class="st0" d="M651.54,612.14H348.46V387.86h303.07V612.14z M360.91,599.69h278.19V400.31H360.91V599.69z"/>
	</g>
	<g>
		<g>
			<rect x="518.87" y="544.08" class="st0" width="12.44" height="61.83"/>
		</g>
		<g>
			<rect x="552.5" y="541.17" class="st0" width="12.44" height="64.75"/>
		</g>
		<g>
			<rect x="586.13" y="536.72" class="st0" width="12.44" height="69.19"/>
		</g>
		<g>
			<polygon class="st0" points="506.38,570.25 497.74,561.3 540.92,519.6 574.09,545.16 611.15,510.8 619.61,519.93 574.84,561.44 
				541.84,536.02 			"/>
		</g>
	</g>
	<g>
		<g>
			<rect x="545.79" y="452.93" class="st0" width="48.2" height="12.44"/>
		</g>
		<g>
			<rect x="513.98" y="452.93" class="st0" width="17.59" height="12.44"/>
		</g>
		<g>
			<rect x="513.98" y="479.44" class="st0" width="59.77" height="12.44"/>
		</g>
	</g>
	<g>
		<path class="st1" d="M434.85,525.86c-29.47,0-53.46-23.98-53.46-53.45c0-29.47,23.98-53.46,53.46-53.46s53.45,23.98,53.45,53.46
			C488.31,501.88,464.33,525.86,434.85,525.86z M434.85,431.39c-22.61,0-41.01,18.4-41.01,41.01c0,22.61,18.4,41.01,41.01,41.01
			c22.61,0,41.01-18.4,41.01-41.01C475.86,449.79,457.47,431.39,434.85,431.39z"/>
	</g>
	<g>
		<polygon class="st1" points="405.85,510.2 397.06,501.41 428.63,469.83 428.63,425.17 441.07,425.17 441.07,474.98 		"/>
	</g>
	<g>
		
			<rect x="450.68" y="457.26" transform="matrix(0.3588 -0.9334 0.9334 0.3588 -155.9078 734.7983)" class="st1" width="12.44" height="47.24"/>
	</g>
</g>
</svg>
