<?xml version="1.0" encoding="utf-8"?>
<!-- Generator: Adobe Illustrator 24.3.0, SVG Export Plug-In . SVG Version: 6.00 Build 0)  -->
<svg version="1.1" id="Layer_1" xmlns="http://www.w3.org/2000/svg" xmlns:xlink="http://www.w3.org/1999/xlink" x="0px" y="0px"
	 viewBox="0 0 1000 1000" style="enable-background:new 0 0 1000 1000;" xml:space="preserve">
<style type="text/css">
	.st0{fill:#FFFFFF;}
	.st1{fill:#35DB8F;}
</style>
<g>
	<g>
		<polygon class="st0" points="575.37,617.25 378.98,617.25 378.98,382.75 575.37,382.75 575.37,491.67 562.92,491.67 
			562.92,395.19 391.42,395.19 391.42,604.81 562.92,604.81 562.92,553.15 575.37,553.15 		"/>
	</g>
	<g>
		
			<rect x="597.54" y="538.82" transform="matrix(0.7073 -0.707 0.707 0.7073 -217.0356 589.8932)" class="st1" width="12.44" height="36.39"/>
	</g>
	<g>
		<rect x="414.9" y="431.03" class="st0" width="124.55" height="12.44"/>
	</g>
	<g>
		<rect x="414.9" y="472.45" class="st0" width="124.55" height="12.44"/>
	</g>
	<g>
		<rect x="414.9" y="513.87" class="st0" width="124.55" height="12.44"/>
	</g>
	<g>
		<rect x="414.9" y="555.29" class="st0" width="124.55" height="12.44"/>
	</g>
	<g>
		<path class="st1" d="M569.14,559.37c-20.39,0-36.98-16.59-36.98-36.98c0-20.39,16.59-36.98,36.98-36.98s36.98,16.59,36.98,36.98
			C606.12,542.79,589.53,559.37,569.14,559.37z M569.14,497.86c-13.53,0-24.54,11.01-24.54,24.54c0,13.53,11.01,24.54,24.54,24.54
			s24.54-11.01,24.54-24.54C593.68,508.87,582.67,497.86,569.14,497.86z"/>
	</g>
</g>
</svg>
