<?xml version="1.0" encoding="utf-8"?>
<!-- Generator: Adobe Illustrator 24.3.0, SVG Export Plug-In . SVG Version: 6.00 Build 0)  -->
<svg version="1.1" id="Layer_1" xmlns="http://www.w3.org/2000/svg" xmlns:xlink="http://www.w3.org/1999/xlink" x="0px" y="0px"
	 viewBox="0 0 1000 1000" style="enable-background:new 0 0 1000 1000;" xml:space="preserve">
<style type="text/css">
	.st0{fill:#FFFFFF;}
	.st1{fill:#35DB8F;}
</style>
<g>
	<g>
		<g>
			<polygon class="st0" points="438.09,631.32 367.85,631.32 367.85,505.86 380.29,505.86 380.29,618.88 425.65,618.88 
				425.65,467.57 438.09,467.57 			"/>
		</g>
		<g>
			<polygon class="st0" points="534.93,631.32 464.68,631.32 464.68,473.26 477.13,473.26 477.13,618.88 522.49,618.88 
				522.49,475.45 534.93,475.45 			"/>
		</g>
		<g>
			<polygon class="st0" points="631.78,631.32 561.53,631.32 561.53,445.96 573.98,445.96 573.98,618.88 619.34,618.88 
				619.34,403.61 631.78,403.61 			"/>
		</g>
	</g>
	<g>
		<polygon class="st1" points="340.19,531.3 333.32,520.93 448.79,444.47 500.16,491.7 659.06,368.68 666.68,378.52 499.47,507.97 
			447.54,460.22 		"/>
	</g>
</g>
</svg>
