<?xml version="1.0" encoding="utf-8"?>
<!-- Generator: Adobe Illustrator 24.3.0, SVG Export Plug-In . SVG Version: 6.00 Build 0)  -->
<svg version="1.1" id="Layer_1" xmlns="http://www.w3.org/2000/svg" xmlns:xlink="http://www.w3.org/1999/xlink" x="0px" y="0px"
	 viewBox="0 0 1000 1000" style="enable-background:new 0 0 1000 1000;" xml:space="preserve">
<style type="text/css">
	.st0{fill:#FFFFFF;}
	.st1{fill:#35DB8F;}
</style>
<g>
	<g>
		<g>
			<path class="st0" d="M645.39,595.39H354.61V417.23h290.79V595.39z M367.05,582.95h265.91V429.67H367.05V582.95z"/>
		</g>
	</g>
	<g>
		<g>
			<rect x="421.41" y="404.61" class="st0" width="12.44" height="37.68"/>
		</g>
		<g>
			<rect x="493.78" y="404.61" class="st0" width="12.44" height="37.68"/>
		</g>
		<g>
			<rect x="566.15" y="404.61" class="st0" width="12.44" height="37.68"/>
		</g>
	</g>
	<g>
		<g>
			<path class="st1" d="M451.83,536.08h-59.54v-59.54h59.54V536.08z M404.73,523.64h34.66v-34.66h-34.66V523.64z"/>
		</g>
		<g>
			<path class="st1" d="M529.77,536.08h-59.54v-59.54h59.54V536.08z M482.67,523.64h34.65v-34.66h-34.65V523.64z"/>
		</g>
		<g>
			<path class="st1" d="M607.71,536.08h-59.54v-59.54h59.54V536.08z M560.61,523.64h34.66v-34.66h-34.66V523.64z"/>
		</g>
	</g>
</g>
</svg>
