<?xml version="1.0" encoding="utf-8"?>
<!-- Generator: Adobe Illustrator 24.3.0, SVG Export Plug-In . SVG Version: 6.00 Build 0)  -->
<svg version="1.1" id="Layer_1" xmlns="http://www.w3.org/2000/svg" xmlns:xlink="http://www.w3.org/1999/xlink" x="0px" y="0px"
	 viewBox="0 0 1000 1000" style="enable-background:new 0 0 1000 1000;" xml:space="preserve">
<style type="text/css">
	.st0{fill:#FFFFFF;}
	.st1{fill:#35DB8F;}
</style>
<g>
	<g>
		<path class="st0" d="M610.38,648.3H389.62V380.27h220.76V648.3z M402.06,635.86h195.88V392.71H402.06V635.86z"/>
	</g>
	<g>
		<path class="st0" d="M550.25,392.71h-100.5V351.7h100.5V392.71z M462.19,380.27h75.61v-16.13h-75.61V380.27z"/>
	</g>
	<g>
		<g>
			<path class="st1" d="M469.06,476.31h-51.49v-51.49h51.49V476.31z M430.01,463.86h26.61v-26.61h-26.61V463.86z"/>
		</g>
		<g>
			<path class="st1" d="M469.06,540.03h-51.49v-51.49h51.49V540.03z M430.01,527.59h26.61v-26.61h-26.61V527.59z"/>
		</g>
		<g>
			<path class="st1" d="M469.06,603.76h-51.49v-51.49h51.49V603.76z M430.01,591.31h26.61v-26.61h-26.61V591.31z"/>
		</g>
	</g>
	<g>
		<rect x="485.35" y="591.31" class="st0" width="93.16" height="12.44"/>
	</g>
	<g>
		<rect x="485.35" y="527.59" class="st0" width="64.42" height="12.44"/>
	</g>
	<g>
		<rect x="531.93" y="463.86" class="st0" width="46.58" height="12.44"/>
	</g>
	<g>
		<rect x="485.35" y="463.86" class="st0" width="24.59" height="12.44"/>
	</g>
</g>
</svg>
