<?xml version="1.0" encoding="utf-8"?>
<!-- Generator: Adobe Illustrator 24.3.0, SVG Export Plug-In . SVG Version: 6.00 Build 0)  -->
<svg version="1.1" id="Layer_1" xmlns="http://www.w3.org/2000/svg" xmlns:xlink="http://www.w3.org/1999/xlink" x="0px" y="0px"
	 viewBox="0 0 1000 1000" style="enable-background:new 0 0 1000 1000;" xml:space="preserve">
<style type="text/css">
	.st0{fill:#FFFFFF;}
	.st1{fill:#35DB8F;}
</style>
<g>
	<g>
		<path class="st0" d="M500,648.3c-81.77,0-148.3-66.53-148.3-148.3S418.23,351.7,500,351.7S648.3,418.23,648.3,500
			S581.77,648.3,500,648.3z M500,364.14c-74.91,0-135.86,60.95-135.86,135.86c0,74.91,60.95,135.86,135.86,135.86
			S635.86,574.91,635.86,500C635.86,425.09,574.91,364.14,500,364.14z"/>
	</g>
	<g>
		<path class="st1" d="M560.3,446.11c-10.5-11.74-24.03-20.1-39.13-24.18l3.25-12.01c17.43,4.71,33.05,14.36,45.16,27.9
			L560.3,446.11z"/>
	</g>
	<g>
		<path class="st1" d="M500,593.32c-51.46,0-93.32-41.86-93.32-93.32c0-51.45,41.86-93.31,93.32-93.31v12.44
			c-44.6,0-80.88,36.28-80.88,80.87c0,44.6,36.28,80.88,80.88,80.88c44.59,0,80.87-36.28,80.87-80.88c0-11.1-2.21-21.85-6.57-31.95
			l11.43-4.93c5.03,11.67,7.58,24.08,7.58,36.88C593.31,551.45,551.45,593.32,500,593.32z"/>
	</g>
	<g>
		<polygon class="st0" points="484.13,535.88 450.52,489.93 460.56,482.58 487.2,518.99 623.03,429.95 629.85,440.36 		"/>
	</g>
</g>
</svg>
