<?xml version="1.0" encoding="utf-8"?>
<!-- Generator: Adobe Illustrator 24.3.0, SVG Export Plug-In . SVG Version: 6.00 Build 0)  -->
<svg version="1.1" id="Layer_1" xmlns="http://www.w3.org/2000/svg" xmlns:xlink="http://www.w3.org/1999/xlink" x="0px" y="0px"
	 viewBox="0 0 32 32" style="enable-background:new 0 0 32 32;" xml:space="preserve">
<style type="text/css">
	.st0{fill:#35DB8F;}
</style>
<g>
	<path class="st0" d="M17.96,20.91v-7.95h-3.93v7.95h1.07l0-5.98c0-0.5,0.4-0.9,0.9-0.9h0c0.5,0,0.9,0.4,0.9,0.9l0,5.98H17.96
		L17.96,20.91z"/>
	<path class="st0" d="M21.39,16c0,0.36-0.04,0.72-0.11,1.07c-0.04,0.18-0.08,0.36-0.14,0.54c-0.16,0.51-0.39,0.98-0.68,1.42
		c-0.58,0.86-1.41,1.55-2.38,1.96c-0.65,0.27-1.36,0.43-2.1,0.42c-0.56,0-1.1-0.08-1.61-0.24c-0.51-0.16-0.98-0.39-1.42-0.68
		c-0.86-0.58-1.55-1.41-1.96-2.38c-0.27-0.65-0.43-1.36-0.42-2.1c0-0.56,0.08-1.1,0.24-1.61c0.16-0.51,0.39-0.98,0.68-1.42
		c0.58-0.86,1.41-1.55,2.38-1.96c0.65-0.27,1.36-0.42,2.1-0.42v1.07c-0.45,0-0.88,0.07-1.29,0.2c-0.41,0.13-0.79,0.31-1.14,0.55
		c-0.69,0.47-1.24,1.13-1.57,1.91c-0.22,0.52-0.34,1.09-0.34,1.69c0,0.37,0.05,0.72,0.13,1.07c0.02,0.08,0.04,0.15,0.06,0.23
		c0.13,0.41,0.31,0.79,0.55,1.13c0.47,0.69,1.13,1.24,1.91,1.57c0.52,0.22,1.09,0.34,1.69,0.34c0.45,0,0.88-0.07,1.29-0.2
		c0.41-0.13,0.79-0.31,1.13-0.55c0.69-0.47,1.24-1.13,1.57-1.91c0.08-0.2,0.15-0.41,0.21-0.62c0.09-0.34,0.13-0.7,0.13-1.07H21.39z"
		/>
	<path class="st0" d="M15.99,10.59c0.75,0,1.46,0.15,2.1,0.42c0.97,0.41,1.8,1.1,2.38,1.96c0.29,0.43,0.52,0.91,0.68,1.41
		c0.16,0.51,0.24,1.05,0.24,1.61h1.07c0-0.89-0.18-1.74-0.51-2.52c-0.49-1.16-1.31-2.15-2.34-2.85c-1.03-0.7-2.28-1.11-3.62-1.11
		V10.59L15.99,10.59z"/>
	<rect x="11.21" y="16" class="st0" width="3.55" height="1.07"/>
	<path class="st0" d="M15.81,16v1.07h5.48c0.07-0.34,0.11-0.7,0.11-1.07H15.81z"/>
	<path class="st0" d="M22.46,16c0,0.89-0.18,1.74-0.51,2.52c-0.49,1.16-1.31,2.15-2.34,2.84c-0.52,0.35-1.08,0.62-1.69,0.81
		c-0.61,0.19-1.25,0.29-1.92,0.29c-0.89,0-1.74-0.18-2.52-0.51c-1.16-0.49-2.15-1.31-2.84-2.34c-0.35-0.52-0.62-1.08-0.81-1.69
		C9.64,17.32,9.54,16.67,9.54,16c0-0.89,0.18-1.74,0.51-2.52c0.49-1.16,1.31-2.15,2.34-2.84c0.52-0.35,1.08-0.62,1.69-0.81
		c0.61-0.19,1.25-0.29,1.92-0.29V8.47c-1.04,0-2.03,0.21-2.93,0.59c-1.35,0.57-2.5,1.53-3.31,2.73c-0.81,1.2-1.29,2.65-1.29,4.21
		c0,1.04,0.21,2.03,0.59,2.93c0.57,1.35,1.53,2.5,2.73,3.31c1.2,0.81,2.65,1.29,4.21,1.29c1.04,0,2.03-0.21,2.93-0.59
		c1.35-0.57,2.5-1.53,3.31-2.73c0.81-1.2,1.29-2.65,1.29-4.21H22.46L22.46,16z"/>
</g>
</svg>
