<?xml version="1.0" encoding="utf-8"?>
<!-- Generator: Adobe Illustrator 24.3.0, SVG Export Plug-In . SVG Version: 6.00 Build 0)  -->
<svg version="1.1" id="Layer_1" xmlns="http://www.w3.org/2000/svg" xmlns:xlink="http://www.w3.org/1999/xlink" x="0px" y="0px"
	 viewBox="0 0 16 16" style="enable-background:new 0 0 16 16;" xml:space="preserve">
<style type="text/css">
	.st0{fill:#35DB8F;}
</style>
<g>
	<path class="st0" d="M9.01,10.53v-4.1H6.98v4.1h0.55l0-3.08c0-0.26,0.21-0.46,0.46-0.46h0c0.26,0,0.46,0.21,0.46,0.46l0,3.08H9.01
		L9.01,10.53z"/>
	<path class="st0" d="M10.78,8c0,0.19-0.02,0.37-0.05,0.55c-0.02,0.09-0.04,0.19-0.07,0.28c-0.08,0.26-0.2,0.51-0.35,0.73
		c-0.3,0.44-0.73,0.8-1.23,1.01c-0.33,0.14-0.7,0.22-1.08,0.22c-0.29,0-0.57-0.04-0.83-0.13c-0.26-0.08-0.51-0.2-0.73-0.35
		c-0.44-0.3-0.8-0.73-1.01-1.23C5.29,8.75,5.21,8.38,5.21,8c0-0.29,0.04-0.57,0.13-0.83c0.08-0.26,0.2-0.51,0.35-0.73
		C5.99,6,6.41,5.64,6.91,5.43C7.24,5.29,7.61,5.21,8,5.21v0.55c-0.23,0-0.46,0.04-0.67,0.1C7.12,5.93,6.92,6.02,6.74,6.14
		C6.39,6.39,6.1,6.73,5.93,7.13C5.82,7.4,5.76,7.69,5.76,8c0,0.19,0.02,0.37,0.07,0.55c0.01,0.04,0.02,0.08,0.03,0.12
		c0.07,0.21,0.16,0.41,0.28,0.59c0.24,0.36,0.58,0.64,0.98,0.81c0.27,0.11,0.56,0.18,0.87,0.18c0.23,0,0.46-0.04,0.67-0.1
		c0.21-0.07,0.41-0.16,0.59-0.28c0.36-0.24,0.64-0.58,0.81-0.98c0.04-0.1,0.08-0.21,0.11-0.32c0.04-0.18,0.07-0.36,0.07-0.55H10.78z
		"/>
	<path class="st0" d="M8,5.21c0.39,0,0.75,0.08,1.08,0.22c0.5,0.21,0.93,0.57,1.23,1.01c0.15,0.22,0.27,0.47,0.35,0.73
		c0.08,0.26,0.13,0.54,0.13,0.83h0.55c0-0.46-0.09-0.9-0.26-1.3c-0.25-0.6-0.68-1.11-1.21-1.47C9.33,4.87,8.69,4.66,8,4.66V5.21
		L8,5.21z"/>
	<rect x="5.53" y="8" class="st0" width="1.83" height="0.55"/>
	<path class="st0" d="M7.9,8v0.55h2.83c0.04-0.18,0.05-0.36,0.05-0.55H7.9z"/>
	<path class="st0" d="M11.33,8c0,0.46-0.09,0.9-0.26,1.3c-0.25,0.6-0.68,1.11-1.21,1.47c-0.27,0.18-0.56,0.32-0.87,0.42
		c-0.31,0.1-0.65,0.15-0.99,0.15c-0.46,0-0.9-0.09-1.3-0.26C6.1,10.82,5.6,10.4,5.24,9.86C5.06,9.6,4.91,9.3,4.82,8.99
		C4.72,8.68,4.67,8.35,4.67,8c0-0.46,0.09-0.9,0.26-1.3C5.18,6.1,5.6,5.6,6.14,5.24C6.4,5.06,6.7,4.91,7.01,4.82
		C7.32,4.72,7.65,4.67,8,4.67V4.12c-0.54,0-1.05,0.11-1.51,0.31C5.79,4.72,5.2,5.21,4.78,5.83C4.36,6.45,4.12,7.2,4.12,8
		c0,0.54,0.11,1.05,0.31,1.51c0.29,0.7,0.79,1.29,1.41,1.71C6.45,11.64,7.2,11.88,8,11.88c0.54,0,1.05-0.11,1.51-0.31
		c0.7-0.29,1.29-0.79,1.71-1.41C11.64,9.55,11.88,8.8,11.88,8H11.33L11.33,8z"/>
</g>
</svg>
