<?xml version="1.0" encoding="utf-8"?>
<!-- Generator: Adobe Illustrator 24.3.0, SVG Export Plug-In . SVG Version: 6.00 Build 0)  -->
<svg version="1.1" id="Layer_1" xmlns="http://www.w3.org/2000/svg" xmlns:xlink="http://www.w3.org/1999/xlink" x="0px" y="0px"
	 viewBox="0 0 64 64" style="enable-background:new 0 0 64 64;" xml:space="preserve">
<style type="text/css">
	.st0{fill:#35DB8F;}
</style>
<g>
	<path class="st0" d="M35.21,40.04V27.03h-6.43v13.01h1.74l0-9.79c0-0.81,0.66-1.47,1.47-1.47h0c0.81,0,1.47,0.66,1.47,1.47l0,9.79
		H35.21L35.21,40.04z"/>
	<path class="st0" d="M40.83,32c0,0.6-0.06,1.18-0.17,1.74c-0.06,0.3-0.14,0.6-0.23,0.89c-0.26,0.83-0.64,1.61-1.11,2.32
		c-0.95,1.41-2.3,2.53-3.89,3.2c-1.06,0.45-2.22,0.7-3.44,0.7c-0.91,0-1.8-0.14-2.63-0.4c-0.83-0.26-1.61-0.64-2.32-1.11
		c-1.41-0.95-2.53-2.3-3.2-3.89c-0.45-1.06-0.7-2.22-0.7-3.44c0-0.91,0.14-1.8,0.4-2.63c0.26-0.83,0.64-1.61,1.11-2.32
		c0.95-1.41,2.3-2.53,3.89-3.2c1.06-0.45,2.22-0.7,3.44-0.7v1.74c-0.74,0-1.45,0.11-2.11,0.32c-0.67,0.21-1.29,0.51-1.86,0.89
		c-1.13,0.77-2.04,1.85-2.57,3.13c-0.36,0.85-0.56,1.78-0.56,2.76c0,0.6,0.07,1.19,0.22,1.74c0.03,0.12,0.07,0.25,0.1,0.37
		c0.21,0.67,0.51,1.29,0.89,1.86c0.77,1.13,1.85,2.04,3.13,2.57c0.85,0.36,1.78,0.56,2.76,0.56c0.74,0,1.45-0.11,2.11-0.32
		c0.67-0.21,1.29-0.51,1.86-0.89c1.13-0.77,2.04-1.85,2.57-3.13c0.14-0.33,0.25-0.67,0.34-1.02c0.14-0.56,0.22-1.14,0.22-1.74H40.83
		z"/>
	<path class="st0" d="M31.98,23.15c1.22,0,2.39,0.25,3.44,0.69c1.59,0.67,2.94,1.79,3.89,3.21c0.48,0.71,0.85,1.48,1.11,2.31
		c0.26,0.83,0.4,1.71,0.4,2.63h1.74c0-1.46-0.3-2.86-0.83-4.12c-0.8-1.9-2.15-3.52-3.84-4.66c-1.69-1.14-3.73-1.81-5.92-1.81V23.15
		L31.98,23.15z"/>
	<rect x="24.16" y="32" class="st0" width="5.8" height="1.74"/>
	<path class="st0" d="M31.68,32v1.74h8.98c0.11-0.56,0.17-1.15,0.17-1.74H31.68z"/>
	<path class="st0" d="M42.58,32c0,1.46-0.3,2.85-0.83,4.12c-0.8,1.9-2.15,3.51-3.83,4.66c-0.84,0.57-1.78,1.02-2.77,1.33
		c-0.99,0.31-2.05,0.48-3.15,0.48c-1.46,0-2.85-0.3-4.12-0.83c-1.9-0.8-3.51-2.15-4.66-3.83c-0.57-0.84-1.02-1.78-1.33-2.77
		c-0.31-0.99-0.48-2.05-0.48-3.15c0-1.46,0.3-2.85,0.83-4.12c0.8-1.9,2.15-3.51,3.83-4.66c0.84-0.57,1.78-1.02,2.77-1.33
		c0.99-0.31,2.05-0.48,3.15-0.48v-1.74c-1.7,0-3.32,0.34-4.8,0.97c-2.21,0.94-4.09,2.5-5.42,4.46c-1.33,1.97-2.11,4.34-2.11,6.89
		c0,1.7,0.34,3.32,0.97,4.8c0.94,2.21,2.5,4.09,4.46,5.42c1.97,1.33,4.34,2.11,6.89,2.11c1.7,0,3.32-0.34,4.8-0.97
		c2.21-0.94,4.09-2.5,5.42-4.46c1.33-1.97,2.11-4.34,2.11-6.89H42.58L42.58,32z"/>
</g>
</svg>
