<?xml version="1.0" encoding="utf-8"?>
<!-- Generator: Adobe Illustrator 24.3.0, SVG Export Plug-In . SVG Version: 6.00 Build 0)  -->
<svg version="1.1" id="Layer_1" xmlns="http://www.w3.org/2000/svg" xmlns:xlink="http://www.w3.org/1999/xlink" x="0px" y="0px"
	 viewBox="0 0 1024 1024" style="enable-background:new 0 0 1024 1024;" xml:space="preserve">
<style type="text/css">
	.st0{fill:#35DB8F;}
</style>
<g>
	<path class="st0" d="M559.71,631.39v-193.3h-95.6v193.3h25.91l0-145.5c0-12.09,9.8-21.89,21.89-21.89h0
		c12.09,0,21.89,9.8,21.89,21.89l0,145.5H559.71L559.71,631.39z"/>
	<path class="st0" d="M643.2,512c0,8.86-0.88,17.53-2.56,25.91c-0.9,4.48-2.02,8.87-3.35,13.17c-3.84,12.36-9.45,23.93-16.54,34.42
		c-14.17,20.97-34.2,37.62-57.81,47.6c-15.74,6.66-33.06,10.34-51.16,10.33c-13.58,0-26.73-2.07-39.08-5.9
		c-12.36-3.85-23.93-9.46-34.42-16.54c-20.97-14.17-37.62-34.21-47.6-57.82c-6.66-15.74-10.34-33.05-10.33-51.16
		c-0.01-13.58,2.07-26.72,5.9-39.08c3.85-12.35,9.46-23.93,16.54-34.42c14.17-20.97,34.21-37.61,57.82-47.6
		c15.73-6.66,33.05-10.33,51.16-10.33v25.91c-10.95,0-21.48,1.66-31.39,4.74c-9.9,3.08-19.18,7.58-27.61,13.27
		c-16.84,11.38-30.24,27.51-38.24,46.44c-5.33,12.62-8.28,26.46-8.28,41.07c0,8.96,1.11,17.63,3.2,25.91
		c0.46,1.85,0.98,3.67,1.54,5.47c3.09,9.9,7.59,19.18,13.28,27.6c11.38,16.85,27.51,30.25,46.44,38.25
		c12.61,5.33,26.46,8.28,41.07,8.28c10.95,0,21.48-1.66,31.39-4.74c9.9-3.08,19.17-7.58,27.6-13.27
		c16.85-11.38,30.25-27.51,38.25-46.44c2.06-4.88,3.76-9.93,5.08-15.15c2.1-8.28,3.2-16.95,3.2-25.91H643.2z"/>
	<path class="st0" d="M511.77,380.54c18.19,0,35.44,3.68,51.17,10.33c23.57,9.97,43.67,26.65,57.85,47.64
		c7.09,10.49,12.7,22.06,16.54,34.39c3.84,12.34,5.91,25.46,5.91,39.1h25.91c0-21.69-4.4-42.42-12.37-61.26
		c-11.95-28.26-31.89-52.26-57-69.23c-25.1-16.97-55.45-26.89-88-26.88V380.54L511.77,380.54z"/>
	<rect x="395.53" y="512" class="st0" width="86.25" height="25.91"/>
	<path class="st0" d="M507.26,512v25.91h133.38c1.68-8.39,2.56-17.05,2.56-25.91H507.26z"/>
	<path class="st0" d="M669.21,512c0,21.74-4.4,42.39-12.35,61.19c-11.92,28.19-31.87,52.22-56.97,69.18
		c-12.55,8.48-26.38,15.18-41.13,19.78c-14.76,4.59-30.45,7.06-46.75,7.07c-21.74,0-42.39-4.4-61.19-12.35
		c-28.19-11.92-52.22-31.87-69.18-56.97c-8.48-12.55-15.18-26.38-19.78-41.13c-4.59-14.76-7.06-30.45-7.07-46.75
		c0-21.74,4.4-42.39,12.35-61.19c11.92-28.19,31.87-52.22,56.97-69.18c12.55-8.48,26.38-15.18,41.13-19.78
		c14.76-4.59,30.45-7.06,46.75-7.07v-25.91c-25.25,0-49.37,5.12-71.28,14.4c-32.88,13.91-60.81,37.11-80.55,66.33
		c-19.74,29.21-31.29,64.51-31.28,102.39c0,25.25,5.12,49.37,14.4,71.28c13.91,32.88,37.11,60.81,66.33,80.55
		c29.21,19.74,64.51,31.29,102.39,31.28c25.25,0,49.37-5.12,71.28-14.4c32.88-13.91,60.81-37.11,80.55-66.33
		c19.74-29.21,31.29-64.51,31.28-102.39H669.21L669.21,512z"/>
</g>
</svg>
