<?xml version="1.0" encoding="utf-8"?>
<!-- Generator: Adobe Illustrator 24.3.0, SVG Export Plug-In . SVG Version: 6.00 Build 0)  -->
<svg version="1.1" id="Layer_1" xmlns="http://www.w3.org/2000/svg" xmlns:xlink="http://www.w3.org/1999/xlink" x="0px" y="0px"
	 viewBox="0 0 128 128" style="enable-background:new 0 0 128 128;" xml:space="preserve">
<style type="text/css">
	.st0{fill:#35DB8F;}
</style>
<g>
	<path class="st0" d="M71.49,82.75V52.39H56.48v30.36h4.07l0-22.86c0-1.9,1.54-3.44,3.44-3.44h0c1.9,0,3.44,1.54,3.44,3.44l0,22.86
		H71.49L71.49,82.75z"/>
	<path class="st0" d="M84.61,64c0,1.39-0.14,2.75-0.4,4.07c-0.14,0.7-0.32,1.39-0.53,2.07c-0.6,1.94-1.49,3.76-2.6,5.41
		c-2.23,3.29-5.37,5.91-9.08,7.48c-2.47,1.05-5.19,1.62-8.04,1.62c-2.13,0-4.2-0.32-6.14-0.93c-1.94-0.6-3.76-1.49-5.41-2.6
		c-3.29-2.23-5.91-5.37-7.48-9.08c-1.05-2.47-1.62-5.19-1.62-8.04c0-2.13,0.32-4.2,0.93-6.14c0.6-1.94,1.49-3.76,2.6-5.41
		c2.23-3.29,5.37-5.91,9.08-7.48c2.47-1.05,5.19-1.62,8.04-1.62v4.07c-1.72,0-3.37,0.26-4.93,0.75c-1.56,0.48-3.01,1.19-4.34,2.08
		c-2.65,1.79-4.75,4.32-6.01,7.29c-0.84,1.98-1.3,4.16-1.3,6.45c0,1.41,0.17,2.77,0.5,4.07c0.07,0.29,0.15,0.58,0.24,0.86
		c0.48,1.56,1.19,3.01,2.09,4.34c1.79,2.65,4.32,4.75,7.29,6.01c1.98,0.84,4.16,1.3,6.45,1.3c1.72,0,3.37-0.26,4.93-0.75
		c1.56-0.48,3.01-1.19,4.34-2.08c2.65-1.79,4.75-4.32,6.01-7.29c0.32-0.77,0.59-1.56,0.8-2.38c0.33-1.3,0.5-2.66,0.5-4.07H84.61z"/>
	<path class="st0" d="M63.96,43.35c2.86,0,5.57,0.58,8.04,1.62c3.7,1.57,6.86,4.19,9.09,7.48c1.11,1.65,1.99,3.46,2.6,5.4
		c0.6,1.94,0.93,4,0.93,6.14h4.07c0-3.41-0.69-6.66-1.94-9.62c-1.88-4.44-5.01-8.21-8.95-10.87c-3.94-2.67-8.71-4.22-13.82-4.22
		V43.35L63.96,43.35z"/>
	<rect x="45.7" y="64" class="st0" width="13.55" height="4.07"/>
	<path class="st0" d="M63.26,64v4.07h20.95c0.26-1.32,0.4-2.68,0.4-4.07H63.26z"/>
	<path class="st0" d="M88.69,64c0,3.42-0.69,6.66-1.94,9.61c-1.87,4.43-5.01,8.2-8.95,10.87c-1.97,1.33-4.14,2.39-6.46,3.11
		c-2.32,0.72-4.78,1.11-7.34,1.11c-3.42,0-6.66-0.69-9.61-1.94c-4.43-1.87-8.2-5.01-10.87-8.95c-1.33-1.97-2.39-4.14-3.11-6.46
		c-0.72-2.32-1.11-4.78-1.11-7.34c0-3.42,0.69-6.66,1.94-9.61c1.87-4.43,5.01-8.2,8.95-10.87c1.97-1.33,4.14-2.39,6.46-3.11
		c2.32-0.72,4.78-1.11,7.34-1.11v-4.07c-3.97,0-7.75,0.8-11.2,2.26c-5.16,2.18-9.55,5.83-12.65,10.42
		c-3.1,4.59-4.91,10.13-4.91,16.08c0,3.97,0.8,7.75,2.26,11.2c2.18,5.16,5.83,9.55,10.42,12.65c4.59,3.1,10.13,4.91,16.08,4.91
		c3.97,0,7.75-0.8,11.2-2.26c5.16-2.18,9.55-5.83,12.65-10.42c3.1-4.59,4.91-10.13,4.91-16.08H88.69L88.69,64z"/>
</g>
</svg>
