<?xml version="1.0" encoding="utf-8"?>
<!-- Generator: Adobe Illustrator 24.3.0, SVG Export Plug-In . SVG Version: 6.00 Build 0)  -->
<svg version="1.1" id="Layer_1" xmlns="http://www.w3.org/2000/svg" xmlns:xlink="http://www.w3.org/1999/xlink" x="0px" y="0px"
	 viewBox="0 0 1024 1024" style="enable-background:new 0 0 1024 1024;" xml:space="preserve">
<style type="text/css">
	.st0{fill:#35DB8F;}
</style>
<g>
	<path class="st0" d="M568.61,653.67V424.3H455.17v229.37h30.75l0-172.65c0-14.34,11.63-25.97,25.97-25.97h0
		c14.34,0,25.97,11.63,25.97,25.97l0,172.65H568.61L568.61,653.67z"/>
	<path class="st0" d="M667.68,512c0,10.51-1.04,20.8-3.04,30.75c-1.06,5.31-2.39,10.52-3.98,15.63
		c-4.56,14.67-11.22,28.39-19.63,40.84c-16.81,24.88-40.59,44.64-68.59,56.48c-18.67,7.9-39.23,12.27-60.71,12.26
		c-16.12,0-31.72-2.45-46.37-7.01c-14.67-4.57-28.39-11.23-40.84-19.63c-24.88-16.82-44.64-40.6-56.48-68.6
		c-7.9-18.67-12.27-39.22-12.26-60.71c-0.01-16.12,2.45-31.71,7.01-46.37c4.57-14.66,11.23-28.39,19.63-40.84
		c16.82-24.88,40.6-44.63,68.6-56.48c18.66-7.9,39.22-12.26,60.71-12.26v30.75c-13,0-25.49,1.97-37.24,5.63
		c-11.75,3.65-22.76,8.99-32.76,15.75c-19.99,13.5-35.88,32.65-45.38,55.1c-6.33,14.97-9.83,31.4-9.83,48.73
		c0,10.63,1.31,20.92,3.79,30.75c0.55,2.19,1.16,4.35,1.83,6.49c3.66,11.75,9,22.76,15.76,32.75c13.5,19.99,32.65,35.89,55.1,45.38
		c14.96,6.33,31.4,9.83,48.73,9.83c13,0,25.48-1.97,37.24-5.63c11.75-3.65,22.75-8.99,32.75-15.75
		c19.99-13.5,35.89-32.65,45.38-55.1c2.44-5.79,4.46-11.79,6.03-17.98c2.49-9.82,3.8-20.12,3.8-30.75H667.68z"/>
	<path class="st0" d="M511.73,356.01c21.58,0,42.06,4.36,60.71,12.25c27.97,11.83,51.82,31.63,68.64,56.53
		c8.41,12.45,15.07,26.17,19.62,40.81c4.55,14.64,7.01,30.2,7.01,46.39h30.75c0-25.74-5.23-50.34-14.68-72.69
		c-14.19-33.53-37.84-62.01-67.64-82.14c-29.78-20.13-65.79-31.91-104.42-31.9V356.01L511.73,356.01z"/>
	<rect x="373.79" y="512" class="st0" width="102.34" height="30.75"/>
	<path class="st0" d="M506.38,512v30.75h158.27c1.99-9.95,3.04-20.24,3.04-30.75H506.38z"/>
	<path class="st0" d="M698.54,512c0,25.8-5.22,50.3-14.65,72.6c-14.15,33.46-37.82,61.97-67.6,82.09
		c-14.89,10.06-31.3,18.02-48.81,23.47c-17.51,5.45-36.13,8.38-55.48,8.38c-25.8,0-50.3-5.22-72.6-14.65
		c-33.46-14.15-61.97-37.82-82.09-67.6c-10.06-14.89-18.02-31.3-23.47-48.81c-5.45-17.51-8.38-36.13-8.38-55.48
		c0-25.8,5.22-50.3,14.65-72.61c14.15-33.46,37.82-61.97,67.6-82.09c14.89-10.06,31.3-18.02,48.81-23.47
		c17.51-5.45,36.13-8.38,55.48-8.38v-30.75c-29.96,0-58.58,6.08-84.58,17.08c-39.01,16.5-72.16,44.04-95.59,78.71
		c-23.43,34.66-37.12,76.55-37.12,121.5c0,29.96,6.08,58.58,17.08,84.58c16.5,39.01,44.04,72.16,78.71,95.59
		c34.66,23.43,76.55,37.12,121.5,37.12c29.96,0,58.58-6.08,84.58-17.08c39.01-16.5,72.16-44.04,95.59-78.71
		c23.43-34.66,37.12-76.55,37.12-121.5H698.54L698.54,512z"/>
</g>
</svg>
